<?xml version="1.0" encoding="UTF-8"?>
<svg version="1.1" xmlns="http://www.w3.org/2000/svg" width="1000" height="1000">
<path d="M0 0 C330 0 660 0 1000 0 C1000 330 1000 660 1000 1000 C670 1000 340 1000 0 1000 C0 670 0 340 0 0 Z " fill="#000000" transform="translate(0,0)"/>
<path d="M0 0 C21.28749547 -0.51491843 42.57395891 -0.90234032 63.86642742 -1.13986778 C73.75430151 -1.25311403 83.63829796 -1.40734385 93.52368164 -1.65966797 C102.14461838 -1.87961138 110.76274763 -2.02102378 119.38641196 -2.06994689 C123.95054024 -2.09853696 128.50664161 -2.16517024 133.06818199 -2.32606125 C160.72767522 -3.26413567 160.72767522 -3.26413567 167.74490738 2.09716034 C172.16091744 7.19704046 174.66218685 12.81423803 176.88475227 19.12762928 C178.72713541 23.87276999 181.42862811 28.07577694 184.125 32.375 C184.70701172 33.35927979 185.28902344 34.34355957 185.88867188 35.35766602 C186.36884766 36.16905029 186.84902344 36.98043457 187.34375 37.81640625 C189.31407449 41.14658671 191.28224084 44.47801196 193.24609375 47.81201172 C206.06261491 69.58740556 206.06261491 69.58740556 219.625 90.90185547 C222.399061 95.13485977 225.10020445 99.41477172 227.8125 103.6875 C228.69675659 105.0789624 228.69675659 105.0789624 229.59887695 106.49853516 C230.80002719 108.38869326 232.00095345 110.27899371 233.20166016 112.16943359 C236.1317377 116.78134224 239.06604578 121.39055701 242 126 C243.16668774 127.83331992 244.33335439 129.66665327 245.5 131.5 C246.0775 132.4075 246.655 133.315 247.25 134.25 C270.875 171.375 270.875 171.375 294.5 208.5 C295.0784668 209.40886963 295.65693359 210.31773926 296.25292969 211.25415039 C297.4103793 213.07330017 298.56728738 214.89279463 299.72363281 216.71264648 C302.77679034 221.51606837 305.84127562 226.31177937 308.921875 231.09765625 C309.56253906 232.09603516 310.20320313 233.09441406 310.86328125 234.12304688 C312.09159704 236.03672727 313.32320219 237.94830165 314.55859375 239.85742188 C315.11160156 240.72044922 315.66460937 241.58347656 316.234375 242.47265625 C316.72131836 243.22812744 317.20826172 243.98359863 317.70996094 244.76196289 C319.06306826 247.10941459 320.0178028 249.47860009 321 252 C329.83221216 252.52252517 338.65379526 252.88653937 347.49979305 253.05958939 C351.61088118 253.14476707 355.70622759 253.28017546 359.81030273 253.53955078 C376.93094629 255.16199252 376.93094629 255.16199252 392.61408234 249.79608154 C399.23549419 243.41580853 403.00781936 234.67233434 406.5473938 226.33483887 C408.30901195 222.29058196 410.4385262 218.63101035 412.78125 214.90625 C414.02266297 212.77189647 415.26231159 210.63651552 416.5 208.5 C422.91375683 197.48081932 429.47896085 186.56091666 436.1171875 175.67578125 C440.18147453 169.00928863 444.1927663 162.31736672 448.1237793 155.5715332 C451.7209301 149.42306295 455.42998851 143.34354616 459.13803101 137.26159668 C466.66262648 124.91809637 474.02572062 112.4915801 481.26757812 99.97949219 C483.07739896 96.86688601 484.90386748 93.76454389 486.734375 90.6640625 C504.2962038 63.2708452 504.2962038 63.2708452 506.49609375 31.8359375 C503.13739642 23.122517 496.10598391 17.98551706 488 14 C474.84565328 8.86106345 460.86463148 6.36645316 447 4 C447 2.68 447 1.36 447 0 C505.74 0 564.48 0 625 0 C625 1.32 625 2.64 625 4 C623.79988281 4.27972656 622.59976563 4.55945313 621.36328125 4.84765625 C595.86096837 10.91988191 572.22607363 18.76218349 552 36 C550.66388672 37.12728516 550.66388672 37.12728516 549.30078125 38.27734375 C532.56967971 52.85620558 520.46823617 71.20737495 509 90 C508.36964844 91.0317334 507.73929688 92.0634668 507.08984375 93.12646484 C503.15380352 99.57751344 499.2349968 106.03885207 495.32481384 112.50559998 C492.77564987 116.72076652 490.22010544 120.93200057 487.66015625 125.140625 C480.90873562 136.24174976 474.17574089 147.35310639 467.5 158.5 C462.23682572 167.28824459 456.94428184 176.05814233 451.625 184.8125 C451.27249176 185.39265869 450.91998352 185.97281738 450.55679321 186.57055664 C448.40285908 190.1150161 446.24803483 193.65893386 444.09295654 197.20269775 C440.78989939 202.63437943 437.4880073 208.06676855 434.1875 213.5 C433.83365234 214.08247498 433.47980469 214.66494995 433.11523438 215.26507568 C427.09962386 225.16957621 421.11974822 235.0951552 415.17236328 245.04077148 C413.78356307 247.36170479 412.39156574 249.68072377 411 252 C433.11 252 455.22 252 478 252 C478 253.32 478 254.64 478 256 C475.47182806 257.26408597 473.24567193 257.43643693 470.4375 257.8125 C453.56284173 260.39573513 434.52844729 263.60933212 423.4140625 277.90625 C417.77389348 286.25743949 417.85122066 294.14851922 417.84178162 303.90220642 C417.83437465 305.53438994 417.83437465 305.53438994 417.82681805 307.19954687 C417.81147894 310.83997962 417.80309212 314.48039477 417.79467773 318.12084961 C417.7850964 320.73268793 417.77508616 323.3445247 417.76467896 325.95635986 C417.74296083 331.57657582 417.72479939 337.19679416 417.70907402 342.81702995 C417.68633279 350.94288262 417.65819594 359.06870962 417.62875474 367.19454045 C417.58113088 380.37911261 417.53785264 393.5636953 417.49731445 406.74829102 C417.457933 419.55363788 417.41650045 432.35897541 417.37231445 445.16430664 C417.36822804 446.34887879 417.36822804 446.34887879 417.36405908 447.55738168 C417.35037917 451.51926624 417.33665898 455.48115066 417.32291877 459.44303501 C417.2090358 492.29533756 417.10247693 525.14765988 417 558 C423.6 558.66 430.2 559.32 437 560 C437 561.65 437 563.3 437 565 C430.4 565 423.8 565 417 565 C417.06118275 592.33834306 417.13807279 619.67659103 417.23571491 647.01482964 C417.28065866 659.7087712 417.32007669 672.4026848 417.34643555 685.09667969 C417.36942704 696.1622266 417.40283811 707.22768489 417.44870156 718.29316151 C417.47261807 724.15090757 417.49135722 730.00856596 417.49761391 735.86635971 C417.50367176 741.38374847 417.52369735 746.90091295 417.55427551 752.41821861 C417.56304443 754.43937433 417.5667807 756.46055936 417.56500816 758.48173332 C417.33716986 777.55931795 417.33716986 777.55931795 426.61328125 793.70703125 C440.18884974 806.60803733 460.0831169 809.51463526 478 812 C478 813.32 478 814.64 478 816 C401.11 816 324.22 816 245 816 C245 814.68 245 813.36 245 812 C245.825 811.90203125 246.65 811.8040625 247.5 811.703125 C266.43175426 809.25213896 288.58651769 804.93883525 301 789 C306.56410595 779.26148483 305.57573782 768.01867362 305.54589844 757.19848633 C305.55464309 755.09836057 305.56513197 752.99824147 305.57722473 750.89813232 C305.6049958 745.22329145 305.60849137 739.54866894 305.60750484 733.87377 C305.61064158 727.93335007 305.63627566 721.99302739 305.65948486 716.05265808 C305.69999006 704.81553925 305.72037272 693.57847837 305.73345876 682.34129781 C305.75232069 667.14816057 305.80240303 651.95512796 305.85070229 636.76206112 C305.92592673 612.84137953 305.95955563 588.92082424 306 565 C266.73 565 227.46 565 187 565 C187 563.35 187 561.7 187 560 C187.9115686 559.89510254 187.9115686 559.89510254 188.84155273 559.78808594 C221.63773111 556.76821224 221.63773111 556.76821224 249 540 C255.79715276 530.17313645 255.88862559 520.91880231 255.85571289 509.46606445 C255.87205898 507.61995718 255.89086056 505.77387029 255.91191101 503.92781067 C255.96035932 498.94392392 255.97059046 493.9606786 255.97061086 488.97658181 C255.97335502 484.79968312 255.99299661 480.62292385 256.01190466 476.44607228 C256.05546702 466.58123261 256.06579662 456.71672645 256.05688477 446.85180664 C256.04845022 436.71401317 256.10292285 426.57790024 256.18742949 416.44049293 C256.25762045 407.70281464 256.28478858 398.96567839 256.27899545 390.22772187 C256.27617847 385.02387087 256.28977414 379.82142613 256.3464222 374.61785316 C256.39818576 369.71751622 256.39577186 364.81998736 256.35394478 359.91958427 C256.34746119 358.13513029 256.35924442 356.35048725 256.39200974 354.56632233 C256.61826926 341.35117783 253.32541416 333.31752601 245.34769046 322.81197298 C243.34702626 320.12207528 241.5901028 317.31041269 239.8125 314.46875 C238.86793945 312.99051758 238.86793945 312.99051758 237.90429688 311.48242188 C236.96166992 310.00612305 236.96166992 310.00612305 236 308.5 C231.51802127 301.48821201 227.02935969 294.48128536 222.5 287.5 C214.57162232 275.27614538 206.74486048 262.98685095 198.89746094 250.7109375 C192.0293718 239.96813079 185.16126521 229.22593713 178.22143555 218.52929688 C173.41678509 211.11584698 168.66479045 203.66874672 163.90673828 196.2253418 C160.08069387 190.24265914 156.24154946 184.26907619 152.375 178.3125 C147.59856669 170.95304082 142.89067681 163.55083126 138.18652344 156.14501953 C134.68956938 150.64366717 131.17375551 145.15556924 127.625 139.6875 C123.1611089 132.80847184 118.73155016 125.90791609 114.3125 119 C113.29917603 117.41687012 113.29917603 117.41687012 112.26538086 115.80175781 C108.77086168 110.34010335 105.28286199 104.87442275 101.8046875 99.40234375 C64.25087532 39.84687205 64.25087532 39.84687205 5 5 C3.33897825 4.63958962 1.67377887 4.29555575 0 4 C0 2.68 0 1.36 0 0 Z " fill="#FDFDFD" transform="translate(76,92)"/>
<path d="M0 0 C54.78 0 109.56 0 166 0 C165.34 1.65 164.68 3.3 164 5 C161.49168422 5.80378698 159.45130301 6.23894594 156.875 6.5625 C155.41343574 6.79293424 153.95250622 7.02742495 152.4921875 7.265625 C151.37021973 7.44254883 151.37021973 7.44254883 150.22558594 7.62304688 C103.23418632 15.5820992 63.28855987 47.8132013 29 79 C27.43769232 80.39604859 25.87518728 81.79187633 24.3125 83.1875 C15.07528074 91.50682523 5.86734804 99.90148939 -2.77734375 108.83984375 C-4.68803112 110.69680353 -6.64006751 112.425564 -8.66015625 114.16015625 C-13.51183356 118.3734106 -17.99475022 122.92243482 -22.5 127.5 C-27.50920469 132.58960926 -32.54022781 137.53004601 -37.95898438 142.18164062 C-41.98496894 145.76842688 -45.71921498 149.65852822 -49.5 153.5 C-54.52934632 158.61007419 -59.58068617 163.57362492 -65.02148438 168.24414062 C-68.68103593 171.49185716 -72.07297957 175.01055661 -75.5 178.5 C-80.18327224 183.26857774 -84.91966352 187.84975966 -89.98632812 192.20898438 C-93.65489554 195.47191 -97.06112599 198.99848712 -100.5 202.5 C-104.64627701 206.72180118 -108.78266684 210.86996218 -113.28125 214.71875 C-116.23187417 217.24827419 -118.70321283 219.84191764 -121 223 C-120.63350342 223.44166504 -120.26700684 223.88333008 -119.8894043 224.33837891 C-113.63123979 231.88800366 -107.38647735 239.43917533 -101.375 247.1875 C-97.23441232 252.51817395 -92.90634008 257.65188875 -88.48217773 262.74853516 C-84.52999326 267.32394135 -80.78581662 272.03508588 -77.08081055 276.81152344 C-73.47453917 281.44304989 -69.72016353 285.92967794 -65.90942383 290.39355469 C-62.60121437 294.27332723 -59.39080657 298.21659603 -56.22265625 302.2109375 C-53.35853172 305.80493559 -50.46170086 309.37177328 -47.5625 312.9375 C-46.9967627 313.63335205 -46.43102539 314.3292041 -45.84814453 315.04614258 C-42.03281692 319.73611501 -38.20654227 324.41701458 -34.375 329.09375 C-30.83919565 333.42045795 -27.31890935 337.75973779 -23.796875 342.09765625 C-20.70520667 345.90445347 -17.60795137 349.70647112 -14.5 353.5 C-10.82124991 357.99023908 -7.15888063 362.49357315 -3.5 367 C1.65220766 373.34523326 6.81891905 379.67830794 12 386 C17.75168369 393.01791256 23.48275956 400.05220257 29.20214844 407.09643555 C32.29412879 410.90365071 35.39171837 414.70606801 38.5 418.5 C42.17875009 422.99023908 45.84111937 427.49357315 49.5 432 C53.95753296 437.48970234 58.4216493 442.97376808 62.90625 448.44140625 C64.30719493 450.15338187 65.70300333 451.86957315 67.09375 453.58984375 C75.0309788 463.38196841 83.26960218 472.92452757 91.75 482.25 C94.75434894 485.55478383 97.58865614 488.94718587 100.375 492.4375 C104.42622381 497.45195184 108.84878504 501.9505927 113.44921875 506.44921875 C115.56632198 508.56632198 117.51817006 510.70707786 119.4375 513 C135.66824303 531.87831104 157.41691198 546.11379921 179.1015625 557.87109375 C185.15574587 561.16191482 185.15574587 561.16191482 188 563 C188 563.33 188 563.66 188 564 C131.57 564 75.14 564 17 564 C16.67 559.38 16.34 554.76 16 550 C14.18716825 546.94425685 13.06662126 545.32431179 10.625 543 C9.51928036 541.83342868 8.41648292 540.66408165 7.31640625 539.4921875 C6.75840332 538.91436523 6.20040039 538.33654297 5.62548828 537.74121094 C3.08029621 535.01482015 0.82801606 532.08428064 -1.4375 529.125 C-5.45552779 523.94545953 -9.54528299 518.83078582 -13.6875 513.75 C-17.76865648 508.74348218 -21.8297128 503.7231393 -25.85546875 498.671875 C-28.09903524 495.87661183 -30.36130916 493.09725937 -32.62597656 490.3190918 C-37.38489872 484.48066312 -42.11118975 478.62195241 -46.75 472.6875 C-50.62698843 467.72854525 -54.56422866 462.82702729 -58.5625 457.96484375 C-65.62398655 449.37563175 -72.65384653 440.76222318 -79.5 432 C-85.5593745 424.24581138 -91.77732331 416.62332608 -98 409 C-104.66041147 400.84041034 -111.28860727 392.66466345 -117.76611328 384.35888672 C-121.43445515 379.67530645 -125.20580849 375.08195552 -129 370.5 C-133.71430735 364.8068908 -138.34559651 359.06237184 -142.89111328 353.23388672 C-146.33662332 348.82368412 -149.84172762 344.46515706 -153.375 340.125 C-153.91688965 339.45936035 -154.4587793 338.7937207 -155.01708984 338.10791016 C-157.23649258 335.38436625 -159.45813337 332.66266593 -161.68212891 329.94287109 C-162.80588395 328.5684498 -163.92892737 327.19344637 -165.05126953 325.81787109 C-166.08579298 324.54995471 -167.12174253 323.28319941 -168.15966797 322.01806641 C-168.64709473 321.4204248 -169.13452148 320.8227832 -169.63671875 320.20703125 C-170.16910156 319.58094971 -170.70148437 318.95486816 -171.25 318.30981445 C-173 316 -173 316 -174.859375 312.66479492 C-177.4946926 308.17320013 -180.06319084 303.93775115 -185.23995972 302.28475952 C-191.67055899 301.2016674 -198.13305041 301.47572357 -204.625 301.6875 C-206.60282237 301.70451387 -208.58070469 301.71563497 -210.55859375 301.72070312 C-215.37577019 301.74577675 -220.18513248 301.85086694 -225 302 C-224.06684879 300.90062509 -223.13212916 299.80258136 -222.19677734 298.70507812 C-221.67642914 298.09345825 -221.15608093 297.48183838 -220.6199646 296.85168457 C-218.07666535 293.94459143 -215.36513401 291.22027797 -212.625 288.5 C-212.0990625 287.97019531 -211.573125 287.44039062 -211.03125 286.89453125 C-208.18129703 284.05146222 -205.26649803 281.33999429 -202.2109375 278.71875 C-197.22025757 274.39899541 -192.62966777 269.69981425 -188 265 C-182.82828024 259.74992084 -177.6496079 254.62928228 -172.0546875 249.83203125 C-167.8501381 246.08310793 -163.95168016 242.0115541 -160 238 C-150.51461008 228.37089205 -150.51461008 228.37089205 -146.03125 224.53125 C-140.90817206 220.13857072 -136.23485253 215.30278441 -131.5 210.5 C-126.1559249 205.07925237 -120.81934589 199.76647975 -115.03710938 194.81445312 C-110.83692794 191.07335193 -106.94571106 187.00549456 -103 183 C-97.81820006 177.73968794 -92.62939118 172.60749253 -87.0234375 167.80078125 C-83.00186948 164.22174099 -79.27483014 160.33542131 -75.5 156.5 C-70.49079531 151.41039074 -65.45977219 146.46995399 -60.04101562 141.81835938 C-56.01503106 138.23157312 -52.28078502 134.34147178 -48.5 130.5 C-43.49079531 125.41039074 -38.45977219 120.46995399 -33.04101562 115.81835938 C-29.01503106 112.23157312 -25.28078502 108.34147178 -21.5 104.5 C-16.49079531 99.41039074 -11.45977219 94.46995399 -6.04101562 89.81835938 C-2.01503106 86.23157312 1.71921498 82.34147178 5.5 78.5 C14.45504469 69.40121463 14.45504469 69.40121463 18.76171875 65.72265625 C24.27930069 60.98169428 29.39719188 55.82578258 34.54711914 50.69311523 C36.31930744 48.93073022 38.10189567 47.17930446 39.88476562 45.42773438 C41.02409329 44.29493002 42.16278789 43.16148852 43.30078125 42.02734375 C44.0929882 41.253657 44.0929882 41.253657 44.90119934 40.46434021 C49.08715049 36.25298427 51.6546739 32.41728272 52.5 26.5 C51.8703536 22.0924752 50.3629794 19.75779632 47 17 C35.35524285 9.16086799 20.39402675 7.65114826 6.765625 6.39453125 C4.0053463 6.10533193 1.64801157 5.71329255 -1 5 C-0.67 3.35 -0.34 1.7 0 0 Z " fill="#FDFDFD" transform="translate(722,344)"/>
</svg>
